<svg width="24" height="24" viewBox="0 0 24 24" fill="none" xmlns="http://www.w3.org/2000/svg">
<circle cx="12" cy="12" r="12" fill="#1C1C1C"/>
<path fill-rule="evenodd" clip-rule="evenodd" d="M23.9999 12.0411C23.9999 12.0274 24 12.0137 24 12C24 5.37259 18.6274 0 12 0C5.37256 0 0 5.37259 0 12C0 18.2907 4.84045 23.4508 11.0001 23.9589C11.0222 17.3504 16.3862 12 23 12C23.3367 12 23.6702 12.0139 23.9999 12.0411Z" fill="#808080"/>
<path fill-rule="evenodd" clip-rule="evenodd" d="M22.6104 6.38959C20.9362 5.50244 19.0267 5 17 5C10.3726 5 5 10.3726 5 17C5 19.0267 5.50244 20.9361 6.38959 22.6104C2.58905 20.5966 0 16.6007 0 12C0 5.37259 5.37256 0 12 0C16.6007 0 20.5966 2.58902 22.6104 6.38959Z" fill="#D9D9D9"/>
</svg>
